<?xml version="1.0" encoding="utf-8"?>
<svg xmlns="http://www.w3.org/2000/svg" width="312px" height="257px">
<path fill="#011E41" d="M277.69,33.3L270.5,8.25h4.61V1.65h-11.84h-11.84v6.59h4.6l-7.18,25.06h-4.13v6.59h17.09V33.3h-4.39l1.6-6.39h4.25h4.25l1.6,6.39h-4.38v6.59h17.09V33.3H277.69z M263.26,21.18h-2.8l2.77-11.09h0.06l2.77,11.09H263.26z M158.66,17.01h-6.73v-8.9h-5.81v25.31h5.81v6.48h-21.72v-6.48h5.82V8.11h-5.82v8.9h-6.73V1.63h35.19V17.01z M162.31,33.41h4.56V8.11h-4.56V1.62h34.04v12.12H189V8.11h-12.03v8.79h9.69v6.48h-9.69v10.03H189v-5.69h7.36V39.9h-34.04V33.41z M199.42,33.41H205l9.52-13.19l-9.41-12.12h-5.3V1.62h19.9v6.09h-3.71l5.76,7.16l5.24-7.16h-3.53V1.62h17.22v6.48h-5.42l-9.18,12.51l9.92,12.8h5.82v6.48h-20.7v-6.09h3.93l-5.99-7.95l-5.82,7.95h3.93v6.09h-17.79V33.41z M285.34,26.88h6.56c-0.11,4.12,2.56,6.93,5.93,6.93c2.34,0,4.28-1.8,4.28-4.11c0-6.99-17.16-6.03-17.16-18.04c0-7.44,5.65-10.43,10.44-10.43c3.02,0,5.47,1.18,7.07,3.55h0.11V1.63h6.5v11.61h-6.5c-0.51-3.5-2.62-5.64-5.59-5.64c-2.22,0-3.82,1.3-3.82,3.1c0,6.2,17.85,4.79,17.85,18.32c0,9.13-7.13,11.38-11.23,11.38c-3.42,0-6.04-1.24-7.76-3.72h-0.11v3.21h-6.56V26.88z M29.47,236.23h-5.34v-5.95h-3.25v17.07h2.5v7.88H7.43v-7.88h2.5v-17.07H6.68v5.95H1.34V222.4h28.13V236.23z M31.67,247.35h2.21v-17.07h-2.21v-7.88h27.01v10.49h-7.42v-2.61h-6.42v5.03h5.58v6.67h-5.58v5.37h6.42v-2.61h7.42v10.49H31.67V247.35z M60.92,247.35h3.17l9.29-8.37l-9.29-8.7h-3v-7.88h18.84v6.92h-2.8l4.75,4.79l4.17-4.79h-2.42v-6.92h15.72v7.88h-4.21l-7.67,7.4l10.13,9.67h2.83v7.88H81.38v-6.92h2.96l-5.21-5.46l-4.79,5.46h3v6.92H60.92V247.35z M133.9,247.35l-5.42-17.07h2.29v-7.88H107.4v7.88h2.29l-5.42,17.07h-2.09v7.88h14.8v-7.2h-2.46l1.09-4.11h6.95l1.09,4.11h-2.46v7.2h14.8v-7.88H133.9z M116.69,239.81l2.33-8.9l0.05-0.18v0h0.03v0l0.05,0.18l2.33,8.9H116.69z M239.41,247.35l-5.42-17.07h2.29v-7.88h-23.38v7.88h2.3l-5.42,17.07h-2.08v7.88h14.79v-7.2h-2.46l1.09-4.11h6.95l1.09,4.11h-2.46v7.2h14.79v-7.88H239.41z M222.2,239.81l2.33-8.9l0.05-0.18v0h0.03v0l0.05,0.18l2.33,8.9H222.2z M308.18,247.35l-5.42-17.07h2.29v-7.88h-23.38v7.88h2.29l-5.42,17.07h-2.08v7.88h14.79v-7.2h-2.46l1.09-4.11h6.95l1.09,4.11h-2.46v7.2h14.8v-7.88H308.18z M290.97,239.81l2.33-8.9l0.05-0.18v0h0.03v0l0.05,0.18l2.33,8.9H290.97z M137.44,247.35h2.3v-17.07h-2.3v-7.88h15.72c8,0,11,0.78,13.38,3.53c1.67,1.93,2.17,4.3,2.17,6.28c0,3.33-1.62,6.38-4.13,7.64l3.92,7.49h2.04v7.88h-10.21l-6.17-13.4h-3.46v5.51h2.12v7.88h-15.38V247.35z M153.78,235.84c2.25,0,3.46-1.16,3.46-3.09c0-1.89-1.17-3.14-3.38-3.14h-3.16v6.24H153.78z M172.57,247.35h2.16v-17.07h-2.16v-7.88h15.38v7.88h-2.25v17.07h2.25v7.88h-15.38V247.35z M190.91,247.35h1.33l-6.21-9.33l7.21-7.74h-2.33v-7.88h13.96v7.88h-2.21l-5.75,6.19l7.21,10.88h1.41v7.88h-14.63V247.35z M243.63,247.35h2.5v-17.07h-2.5v-7.88h13.42l10.29,17.17h0.09v-9.28h-2.38v-7.88h11.42v7.88h-2.46v25.48h-9.34L252.8,235.8h-0.09v11.56h2.54v7.88h-11.63V247.35z"/>
<path fill="#7A303F" d="M1.34,179.49h15.34v5.58h-2.86v16.75c0,3.25,0.97,5.44,4.27,5.44c2.77,0,4.56-1.41,4.56-5.14v-17.04h-2.72v-5.58h12.72v5.58h-4.13v18.45c0,7.67-6.7,9.32-11.36,9.32c-6.45,0-11.94-2.47-11.94-10.53v-17.24H1.34V179.49z M34.55,212.46h14.42v-5.58h-4.13v-18.64h0.1l14.08,24.22h7.38v-27.38h4.66v-5.58H56.25v5.58h4.27v15h-0.1l-12.09-20.58H34.55v5.58h4.42v21.8h-4.42V212.46z M73.78,212.46h18.59v-5.58h-5v-21.8h5v-5.58H73.78v5.58h5v21.8h-5V212.46z M107.7,212.7h6.65l9.57-27.63h3.88v-5.58h-13.89v5.58h3.64l-5.54,16.51h-0.1l-5.48-16.51h3.79v-5.58H93.92v5.58h3.88L107.7,212.7z M129.46,212.46h28.98v-10.49h-6.26v4.9h-10.24v-8.65h8.25v-5.58h-8.25v-7.57h10.24v4.85h6.26v-10.44h-28.98v5.58h3.88v21.8h-3.88V212.46z M195.68,206.88h-4.27l-5.34-9.95c3.83-1.75,5.68-4.42,5.68-8.21c0-5-3.5-9.22-9.91-9.22h-20.53v5.58h4.51v21.8h-4.51v5.58h17.24v-5.58h-4.13v-8.88h3.79l7.43,14.47h10.05V206.88z M174.41,192.7v-7.62h4.37c3.2,0,4.03,2.38,4.03,3.73c0,1.75-1.11,3.89-4.95,3.89H174.41z M198.19,212.46h5.58v-2.77h0.1c1.46,2.14,3.69,3.21,6.6,3.21c3.5,0,9.57-1.94,9.57-9.81c0-11.65-15.2-10.44-15.2-15.78c0-1.55,1.36-2.67,3.25-2.67c2.52,0,4.32,1.84,4.76,4.85h5.54v-10h-5.54v2.72h-0.1c-1.36-2.04-3.44-3.06-6.02-3.06c-4.08,0-8.88,2.57-8.88,8.98c0,10.34,14.61,9.52,14.61,15.54c0,1.99-1.65,3.54-3.64,3.54c-2.87,0-5.14-2.42-5.05-5.97h-5.58V212.46z M222.91,212.46h18.59v-5.58h-5v-21.8h5v-5.58h-18.59v5.58h5v21.8h-5V212.46z M273.98,179.49h-29.95v13.25h5.73v-7.67h4.95v21.8h-4.95v5.58h18.5v-5.58h-4.95v-21.8h4.95v7.67h5.73V179.49z M284.75,212.46h17.67v-5.58h-4.66v-8.88l8.59-12.91h4.13v-5.58h-14.12v5.58h2.86l-4.81,8.06l-5-8.06h3.01v-5.58h-16.21v5.58h4.13l9.07,12.91v8.88h-4.66V212.46z M130.53,111.81v22.95h-59.5v-22.95h15.26l-5.55-22.24H65.94H51.13l-5.55,22.24h15.26v22.95H1.34v-22.95h14.37l25.01-87.26H24.7V1.61h41.24h41.24v22.95H91.14l25.01,87.26H130.53z M75.69,69.58l-9.66-38.6h-0.19l-9.66,38.6h9.76H75.69z M142.43,154.65H1v5.25h141.43V154.65z M152.76,96.48l-2.92-3.67c1.57-1.78,3.01-4.02,4.31-6.72h4.36v-5.72h-8.44c-1.03,2.34-2.5,4.81-4.42,7.41l-5.08-6.44c4.13-2.1,6.21-4.8,6.21-8.1c0-2.12-0.91-3.86-2.72-5.24c-1.81-1.37-4.09-2.05-6.82-2.05c-2.7,0-5,0.68-6.89,2.05c-1.89,1.37-2.83,3.32-2.83,5.85c0,2.17,0.93,4.33,2.8,6.49c-3.64,1.74-6.19,3.53-7.66,5.36c-1.46,1.83-2.19,3.88-2.19,6.15c0,2.96,1.15,5.53,3.45,7.7c2.3,2.17,5.39,3.26,9.27,3.26c4.28,0,8.12-1.52,11.52-4.57l3.23,3.95h10.57v-5.72H152.76z M140.74,93.3c-2.02,1.86-4.05,2.8-6.11,2.8c-1.76,0-3.21-0.54-4.32-1.63c-1.12-1.09-1.68-2.34-1.68-3.76c0-2.52,1.77-4.51,5.31-5.98L140.74,93.3z M137.02,76.85c-1.58-1.95-2.36-3.25-2.36-3.9c0-0.63,0.29-1.17,0.86-1.61c0.58-0.44,1.25-0.65,2.02-0.65c0.81,0,1.49,0.25,2.07,0.77c0.57,0.51,0.86,1.12,0.86,1.82C140.45,74.64,139.3,75.83,137.02,76.85 M310.4,70.29V50.12h-56.45l-19.38,54.49l-19.38-54.49h-56.45v20.17h13.31v79.05h-13.31v20.17h51.77v-20.17h-12.42V70.29h-0.13l30.59,78.63h4.76h2.53h4.76l30.59-78.63h-0.13v79.05h-12.42v20.17h51.77v-20.17h-13.31V70.29H310.4z"/></svg>